 <svg  version="1.0" xmlns="http://www.w3.org/2000/svg"  width="300.000000pt" height="300.000000pt" viewBox="0 0 300.000000 300.000000"  preserveAspectRatio="xMidYMid meet">  <g transform="translate(0.000000,300.000000) scale(0.100000,-0.100000)" fill="#deddda" stroke="none"> <path d="M275 2845 c-25 -24 -25 -26 -25 -203 l0 -179 -71 -5 c-58 -5 -76 -10 -107 -35 -78 -62 -72 25 -72 -1133 l0 -1035 23 -40 c12 -22 38 -50 56 -62 l34 -23 1220 0 c1212 0 1220 0 1253 21 18 11 42 34 52 52 31 50 367 1574 358 1621 -7 38 -53 99 -90 118 -11 6 -70 14 -131 17 l-109 6 -6 30 c-8 40 -35 79 -68 102 -21 14 -53 19 -142 23 l-115 5 -5 110 c-6 126 -19 161 -76 195 -25 16 -58 24 -105 28 l-69 5 0 182 c0 177 -1 182 -23 203 l-23 22 -868 0 -867 0 -24 -25z m1725 -389 l0 -333 -40 -7 c-46 -7 -106 -61 -116 -104 -3 -15 -7 -33 -10 -39 -3 -10 -113 -13 -506 -13 -319 0 -517 -4 -541 -11 -61 -17 -102 -66 -121 -146 -13 -57 -143 -645 -231 -1048 -81 -371 -97 -440 -101 -444 -2 -2 -4 554 -4 1237 l0 1242 835 0 835 0 0 -334z m-1750 -1166 l0 -1000 -40 0 -40 0 0 1000 0 1000 40 0 40 0 0 -1000z m1918 918 l-3 -83 -40 0 -40 0 -3 83 -3 82 46 0 46 0 -3 -82z m-516 -618 c117 -36 231 -127 290 -231 83 -144 85 -325 6 -482 -23 -46 -12 -67 33 -67 20 0 61 -27 155 -102 189 -152 194 -158 194 -207 0 -77 -77 -125 -143 -89 -12 6 -84 63 -161 126 -93 78 -143 126 -153 149 -7 19 -20 36 -27 39 -8 3 -37 -10 -65 -29 -224 -154 -542 -87 -693 147 -97 150 -105 353 -20 510 59 110 198 217 318 245 71 17 197 12 266 -9z"/> <path d="M625 2578 c-55 -30 -62 -92 -14 -132 l31 -26 520 0 520 0 29 29 c38 38 38 74 0 112 l-29 29 -519 0 c-356 -1 -524 -4 -538 -12z"/> <path d="M605 2225 c-34 -33 -34 -83 1 -116 l26 -24 530 0 530 0 24 28 c32 38 31 72 -5 108 l-29 29 -527 0 -526 0 -24 -25z"/> <path d="M1399 1427 c-153 -57 -239 -200 -218 -364 24 -190 226 -323 410 -270 116 34 200 116 234 229 46 149 -30 320 -173 389 -58 28 -196 37 -253 16z"/> </g> </svg> 